<?xml version="1.0" standalone="no"?>
<!DOCTYPE svg PUBLIC "-//W3C//DTD SVG 1.1//EN" "http://www.w3.org/Graphics/SVG/1.1/DTD/svg11.dtd" >
<svg xmlns="http://www.w3.org/2000/svg">
<metadata></metadata>
<defs>
<font id="supernatural_knightregular" horiz-adv-x="545" >
<font-face units-per-em="2048" ascent="1638" descent="-410" />
<missing-glyph horiz-adv-x="569" />
<glyph horiz-adv-x="0" />
<glyph horiz-adv-x="682" />
<glyph unicode=" "  horiz-adv-x="569" />
<glyph unicode="&#x09;" horiz-adv-x="569" />
<glyph unicode="&#xa0;" horiz-adv-x="569" />
<glyph unicode="!" horiz-adv-x="547" d="M63 1821l252 -286q13 -157 19.5 -904.5t6.5 -744.5q0 -33 -26 -33q4 0 -88.5 102t-117.5 134q59 25 53 120.5t-8.5 767.5t-90.5 844zM169 -312q0 96 110 96q74 0 74 -96q0 -36 -28 -61t-64 -25q-92 0 -92 86z" />
<glyph unicode="&#x22;" horiz-adv-x="578" d="M168 932q-4 12 8 33q15 47 -4 157q-17 101 4 164q8 22 17 31q3 4 11 4t19 -4q6 -4 17 -12q4 -5 -7 -39q-15 -49 0 -138q22 -123 0 -184q-9 -26 -20 -35q-10 -5 -26 3.5t-19 19.5zM336 932q-4 12 8 33q15 47 -4 157q-18 101 4 164q8 22 16 31q4 4 12 4t19 -4q6 -4 17 -12 q4 -5 -7 -39q-15 -49 0 -138q22 -123 0 -184q-9 -26 -20 -35q-10 -5 -26 3.5t-19 19.5z" />
<glyph unicode="#" horiz-adv-x="1151" d="M43 763q-6 12 4 27q4 5 14 16q5 5 37 -6q52 -18 201 -68q35 101 102 303l-323 109q-33 8 -33 26q0 13 3 27.5t19 13.5q12 0 31 -10q86 -26 324 -104l164 481q9 25 20 35q15 3 27 -4q5 -4 16 -15q4 -3 -6 -36q-18 -64 -160 -482q158 -49 307 -100l197 602q7 22 20 35 q13 2 27 -4q6 -4 16 -15q5 -3 -6 -36q-48 -155 -190 -601q94 -31 221 -75q17 -3 35 -21q5 -12 -4 -26q-4 -6 -15 -17q-8 -10 -36 6q-2 1 -220 72q-38 -118 -102 -317q184 -62 342 -119q22 -9 35 -21q3 -12 -4 -26q-4 -6 -15 -17q-8 -10 -36 6q-58 19 -340 115 q-68 -207 -150 -452q-8 -25 -20 -35q-11 -5 -27 4q-6 4 -16 14q-7 7 6 37q36 113 145 455q-103 37 -311 108l-199 -583q-6 -18 -20 -35q-16 -4 -27 4q-14 9 -16 14q-10 10 6 37q49 149 194 586q-86 31 -202 71q-21 7 -35 21zM360 710q106 -36 312 -109q36 123 100 313 q-102 34 -309 101q-33 -101 -103 -305z" />
<glyph unicode="$" horiz-adv-x="1047" d="M139 231q0 45 51 45q22 0 68 -38q30 -26 68 -136q9 -28 159 -36q25 -2 25 18q0 8 4 260.5t4 261.5q0 16 -10 19q-162 49 -238 125q-100 100 -100 229q0 149 115 264q82 82 219 100q14 0 14 13v96q0 27 35 27q18 0 18 -17q0 -6 -1 -47.5t-1 -48.5q0 -18 15 -18 q134 0 198 -33q90 -46 90 -107q0 -41 -43 -41q-76 0 -133 105q-16 31 -108 31q-19 0 -19 -13q0 -8 -3 -253.5t-3 -254.5q0 -25 10 -28q207 -59 286 -153t79 -204q0 -151 -119 -262q-81 -76 -252 -108q-12 -3 -8 -308h-25q-26 0 -26 31q0 7 3 126.5t3 127.5q0 15 -18 14 q-130 -2 -211 39q-146 74 -146 174zM283 1036q0 -97 47 -145q83 -85 162 -113q18 -6 21 -4t3 10l2 492q0 13 -3.5 16.5t-14.5 1.5q-80 -14 -158 -77q-15 -15 -39 -68q-20 -45 -20 -113zM555 96q0 -35 20 -30q105 21 185 100q67 67 67 176q0 96 -79 164q-82 70 -162 88 q-19 4 -19 -14q0 -10 -6 -242.5t-6 -241.5z" />
<glyph unicode="%" horiz-adv-x="1647" d="M63 909q0 129 49 216.5t130 129.5q66 35 184 35q87 0 152 -37q76 -53 108.5 -142t32.5 -196q0 -103 -33 -186q-37 -93 -137 -154q-68 -41 -158 -41q-106 0 -143 21q-92 39 -139 141q-46 97 -46 213zM174 979q0 -145 47 -258q33 -80 88 -117q46 -31 105 -31q67 0 104 23 q47 29 74 106q20 59 20 175q0 161 -73 260q-73 96 -199 96q-54 0 -70 -5q-30 -9 -53 -44q-43 -66 -43 -205zM502 -190q-10 9 6 36q231 689 500 1493q7 22 20 35q14 0 27 -4q6 -4 16 -14q9 -9 -6 -37q-79 -250 -500 -1493q-7 -22 -20 -35q-19 0 -28 4.5t-15 14.5zM905 352 q0 129 48.5 216.5t129.5 129.5q67 35 185 35q87 0 151 -37q77 -53 109.5 -142t32.5 -196q0 -103 -33 -186q-37 -93 -137 -154q-68 -41 -158 -41q-107 0 -143 21q-92 39 -140 141q-45 97 -45 213zM1016 422q0 -145 47 -258q33 -80 88 -117q46 -31 104 -31q68 0 105 23 q46 28 74 106q20 59 20 174q0 162 -74 261q-72 96 -198 96q-59 0 -79 -8q-23 -9 -44 -41q-43 -67 -43 -205z" />
<glyph unicode="&#x26;" horiz-adv-x="1772" d="M86 556q0 133 60 250q30 59 84 103q41 33 84 53q10 5 -3 24q-22 36 -38 78q-27 67 -27 115q0 26 29 63q79 104 196 164q12 6 51 6q43 0 114 -18q77 -19 108 -41q19 -14 18 -27q-3 -46 -25 -106q-14 -41 -18 -41t-20 22q-19 27 -62 45q-99 43 -209 43q-88 0 -88 -63 q0 -39 37 -102q34 -59 145 -203q135 -174 203 -228q12 -9 18 -7q5 2 5 12q-6 186 94 264q74 57 205 57q87 0 221 -35q110 -28 229 -28q70 0 111 28q52 37 52 96q0 10 -1 19q-2 16 4 20q12 9 15 11q2 2 8 -6q16 -27 16 -76q0 -91 -35 -131q-67 -78 -131 -78q-55 0 -211 39 q-11 3 -13 -1q-3 -4 5 -16q64 -96 64 -211q0 -203 -113 -348q-8 -9 6 -20q24 -25 139 -62q64 -20 119 -20q95 0 156 102q12 21 18 25q4 -1 10 -4q9 -8 9 -10q0 -15 -17 -54q-42 -100 -139 -172q-36 -26 -92 -26q-44 0 -122.5 22.5t-191.5 91.5q-18 12 -34 2 q-105 -61 -139 -74q-113 -40 -304 -40q-326 0 -473 143q-127 124 -127 350zM217 596q0 -70 12 -135q24 -124 123 -223q111 -111 254 -148q80 -20 211 -20q200 0 268 61q9 8 -4 16q-113 76 -209 148q-113 85 -229 207q-179 188 -278 340q-10 14 -21 8q-49 -26 -85 -91 q-42 -75 -42 -163zM805 668q0 -110 41 -152q46 -48 161 -135q123 -93 191 -129q25 -13 39 4q94 114 94 309q0 129 -82 211q-96 92 -229 92q-109 0 -160 -49q-55 -53 -55 -151z" />
<glyph unicode="'" horiz-adv-x="414" d="M168 932q-4 12 8 33q15 47 -4 157q-17 101 4 164q8 22 17 31q3 4 11 4t19 -4q6 -4 17 -12q4 -5 -7 -39q-15 -49 0 -138q22 -123 0 -184q-9 -26 -20 -35q-10 -5 -26 3.5t-19 19.5z" />
<glyph unicode="(" horiz-adv-x="788" d="M138 595q0 385 232 708q133 185 285 299q23 18 36 18q10 0 21 -16q8 -12 8 -19t-25 -28q-67 -56 -143 -154q-84 -108 -121 -196q-106 -258 -106 -631q0 -429 170 -694q47 -73 203 -196q16 -13 16 -23q0 -9 -13 -24t-20 -15q-6 0 -31 17q-207 149 -348 376 q-164 265 -164 578z" />
<glyph unicode=")" horiz-adv-x="788" d="M71 -350q0 10 26 31q112 93 186 200q203 295 203 737q0 216 -26 350q-19 101 -72 232q-79 194 -280 343q-26 19 -26 29q0 6 16 20.5t20 14.5q15 0 39 -17q181 -134 289.5 -280t159.5 -272q72 -179 72 -395q0 -332 -188 -619q-137 -209 -354 -388q-31 -25 -35 -25 q-8 0 -21 18q-9 11 -9 21z" />
<glyph unicode="*" horiz-adv-x="995" d="M98 936q0 4 7.5 32.5t9.5 41.5q0 1 22 75q3 11 21 11q24 0 73 -6q82 -15 207 -33q-21 62 -78 166q-27 50 -75 90q-19 7 -25 22q-4 11 6 15q29 2 78 8q72 14 78 14q10 3 14 -18q1 -3 10.5 -31t12.5 -35q20 -83 55 -213q42 45 115 129q47 59 61 117q7 28 23 35 q16 -26 45 -66q11 -23 43 -71q0 -13 -13 -25q-22 -16 -55 -45q-15 -9 -61 -37q-56 -34 -74 -55q54 2 135 6q91 9 117 26.5t41 14.5q0 -5 -19 -82q-8 -33 -18 -80q-4 -10 -25 -10q-4 0 -69 10q-182 29 -207 29q29 -55 80 -154q31 -62 72 -98q13 -8 28 -25q1 -4 -10 -12 q-4 -1 -34 -6.5t-42 -7.5q-61 -6 -76 -9q-13 0 -20 19q-13 32 -23 65q-17 83 -45 201q-57 -63 -118 -133q-11 -8 -39.5 -49.5t-28.5 -50.5q0 -25 -10 -35q-9 -9 -15 2q-15 22 -43 63q-14 38 -36 72q-6 8 8 25q1 1 57 41q70 41 160 102q-65 -6 -162 -14q-69 -3 -115 -31 q-20 -15 -32 -12q-11 0 -11 12z" />
<glyph unicode="+" horiz-adv-x="987" d="M145 610q0 29 10 56q9 24 17 24q-3 0 86.5 -1t165.5 -1q0 79 2 171t2 83q0 21 39 21q25 0 52.5 -9.5t27.5 -17.5q0 -6 -2 -89t-2 -159q81 0 160.5 -2t74.5 -2q21 0 21 -57q0 -62 -15 -62q12 0 -73 1t-168 1q0 -79 -1 -167t-1 -81q0 -20 -62 -20q-57 0 -57 14q0 -6 1 84 t1 170q-77 0 -171.5 2t-86.5 2q-21 0 -21 39z" />
<glyph unicode="," horiz-adv-x="438" d="M106 90q0 62 91 62q66 0 114.5 -55t48.5 -140q0 -136 -135 -236q-30 -22 -37 -22q-12 0 -12 18q0 15 23 37q71 72 71 164q0 36 -18 68q-11 14 -39 14q-41 0 -72 24q-35 25 -35 66z" />
<glyph unicode="-" horiz-adv-x="698" d="M88 434q0 26 16 33q355 148 471 192q22 9 25 9q10 0 10 -27q0 -24 -16 -31q-5 -3 -228 -97t-237 -99l-29 -11q-12 0 -12 31z" />
<glyph unicode="." horiz-adv-x="438" d="M121 72q0 96 110 96q74 0 74 -96q0 -36 -28 -61t-64 -25q-92 0 -92 86z" />
<glyph unicode="/" horiz-adv-x="598" d="M20 -80q-9 10 7 37q237 741 499 1493q8 22 21 35q27 0 43 -19q4 -4 -6 -36q-30 -92 -248 -745q-223 -666 -252 -748q-8 -23 -21 -35q-30 -4 -43 18z" />
<glyph unicode="0" horiz-adv-x="1888" d="M20 679.5q0 182.5 12 283.5t51 222t119 236t140 170.5t152 104.5t162 65.5t211 12.5q163 -16 237 -40.5t137.5 -70t133.5 -119.5t148 -228t113.5 -338.5t18.5 -380t-68.5 -347.5t-102.5 -254t-102.5 -162t-109 -111t-127.5 -86t-159.5 -48.5t-97.5 15t88.5 44.5t132 40.5 t89 82t92.5 121t90.5 164t88.5 285.5t45 328.5t-6.5 264.5t-49 207.5t-82 166.5t-113 158t-231 134.5t-319.5 16.5t-271.5 -206t-154 -330.5t-45.5 -384t12 -326.5t68 -246.5t104.5 -234t127 -160t139.5 -76t70 -44.5t-84 -22.5t-152 40t-139.5 80t-123 119.5t-95 143.5 t-76 166t-53 226t-20.5 318zM26 597.5q-17 195.5 18.5 380t113.5 338.5t148 228t133.5 119.5t137.5 70t237 40.5q141 4 211 -12.5t162 -65.5t152 -104.5t140 -170.5t119 -236t51 -222t12 -283.5t-20.5 -318t-53 -226t-76 -166t-95 -143.5t-123 -119.5t-139.5 -80t-152 -40 t-84 22.5t70 44.5t139.5 76t127 160t104.5 234t68 246.5t12 326.5t-45.5 384t-154 330.5t-271.5 206t-313 -18.5t-224.5 -136.5t-113 -158t-82 -166.5t-49 -207.5t-6.5 -264.5t45 -328.5t88.5 -285.5t90.5 -164t92.5 -121t89 -82t125.5 -38.5t82 -42.5t-97.5 -15 t-159.5 48.5t-127.5 86t-109 111t-102.5 162t-102.5 254t-68.5 347.5z" />
<glyph unicode="1" horiz-adv-x="697" d="M24 1757h530v-2160l-203 269v1630q8 159 -327 261z" />
<glyph unicode="2" horiz-adv-x="1712" d="M32 -406q126 83 183 120q418 278 665 597q172 225 236 396q62 160 62 365q0 222 -110 345q-126 143 -296.5 161.5t-264.5 0.5t-252.5 -138.5t-29.5 59.5q82 115 221.5 189.5t386.5 74.5q256 0 411 -155q148 -149 148 -414q0 -177 -72 -357q-139 -341 -354 -575 q-239 -262 -483 -444q-16 -11 -16 -21q0 -18 38 -18h398q357 0 559 78q44 10 78 30q23 16 46 30q-48 -78 -90 -162q-28 -63 -63 -142q-13 -20 -28 -20h-1220h-153z" />
<glyph unicode="3" horiz-adv-x="1455" d="M117.5 1364q-20.5 -59 73.5 0t191.5 116t268.5 77.5t263 -51t47 -224t-108 -218t-159 -124.5t-187.5 -79.5t-134 -44.5t20.5 -69t146.5 -45t187.5 -16.5t144.5 -61.5t87.5 -128.5t59 -181.5t-14.5 -238t-97.5 -228t-150.5 -116.5t-204.5 -5.5t-355 153t-28.5 -78 t528.5 -189.5t445 267.5t132 405.5t-69 315.5t-218 210t-67.5 97.5t191 205.5t75 346.5t-185 240.5t-344.5 43t-362.5 -165t-175 -214z" />
<glyph unicode="4" horiz-adv-x="1693" d="M22 337l61 74q67 90 554.5 715.5t533.5 593.5q-6 -30 -6 -68q0 -9 -10 -557t-10 -565q0 -34 23 -29q15 0 130.5 7t171 24t-41 -86t-113.5 -117q-63 10 -150 4q-26 0 -26 -26q0 -9 -33.5 -270t45.5 -322q-31 -48 -115 -84q-107 -16 -118 -54q-20 12 -5.5 360.5t14.5 360.5 q0 32 -29 32q-859 0 -876 7zM256 515q1 -8 21 -8h637q23 0 28.5 7.5t5.5 24.5t10 421t10 410q0 45 -41 -7q-31 -31 -254 -311l-402 -510q-17 -20 -15 -27z" />
<glyph unicode="5" horiz-adv-x="1536" d="M48 -144.5q6 -28.5 114.5 -95.5t300.5 -122t360.5 -3.5t268.5 143.5t156 168t87 213t5.5 273.5t-129 250.5t-244.5 168.5t-600 53.5v677q705 -4 725.5 0t49 14t41 38.5t10.5 53t1 122.5q-83 -128 -509 -114t-443 5.5t-17.5 -48t-2 -213.5t-4.5 -395t1.5 -241.5t21 -31 t235.5 -6t322 -46.5t177.5 -127t95.5 -180t14 -224t-79.5 -249t-141.5 -171t-134 -60.5t-185.5 -12.5t-197 42t-132 69t-82 53t-44.5 28.5t-32.5 2t-8.5 -35z" />
<glyph unicode="6" horiz-adv-x="1541" d="M32 402q-8 259 59 442t191.5 354.5t298 340.5t503.5 263q-114 -74 -191.5 -129t-177.5 -173t-189.5 -252.5t-142.5 -232.5t-67.5 -175.5t-33 -263t8.5 -346.5t124.5 -274.5t195.5 -162.5t194 -38.5t183.5 51t142.5 162.5t49 246t-55 238.5t-134.5 173.5t-165 77.5 t-187.5 12t-189.5 -12.5t-77.5 18.5t30.5 45t199.5 63.5t305.5 12t253 -126.5t169.5 -242.5t34.5 -267t-67.5 -232t-140.5 -193.5t-189.5 -116t-259 -38.5t-255 49t-190 138.5t-157 207.5t-73 381z" />
<glyph unicode="7" horiz-adv-x="1545" d="M8 1599l211 206q205 -54 537 -54q105 0 303 23q160 20 354 35l-356 -524q-173 -256 -322 -566q-155 -315 -208 -529q-51 -200 -51 -370q0 -52 9 -232l-162 262q22 403 144 663q154 329 420 708q102 132 231 307q25 37 25 48q0 16 -30 11q-6 0 -12 -2q-242 -51 -606 -51 q-281 0 -487 65z" />
<glyph unicode="8" horiz-adv-x="1452" d="M58 204.5q2 -175.5 57 -276.5t173 -205t265 -118.5t281.5 6t236.5 100t173 205.5t40.5 376.5t-167 360.5t-244.5 103.5t-247 18.5t-194 62.5t-72 -35.5t17 -86.5t111 -23.5t195.5 -26.5t179.5 -39t114 -67.5t102 -167t55 -203.5t-14.5 -160.5t-63 -154.5t-114 -106 t-151 -43t-173.5 2t-187.5 75.5t-146.5 177t-68 246t30 318.5t8.5 184t-117.5 -176t-79 -347zM67.5 1148.5q30.5 -250.5 167 -360.5t240.5 -126t216 -10.5t204 28t90 38t-24.5 26.5t-98 13t-140.5 2t-179.5 39t-167.5 84t-102 167t-55 203.5t14.5 161t63 155t114 106t151 43 t173.5 -2t187.5 -75.5t146.5 -177.5t68 -246.5t-35 -313.5t-13.5 -179t122.5 171t84 342t-57 277t-177 201.5t-265 118.5t-277.5 -2t-236.5 -100t-173 -206t-40.5 -377z" />
<glyph unicode="9" horiz-adv-x="1570" d="M63.5 1221q14.5 120 67.5 232.5t140.5 194t189.5 116t259 38.5t255 -49t190 -138.5t157 -208t73 -381.5t-59 -442t-191.5 -354.5t-298 -340.5t-503.5 -263q114 74 191.5 129t177.5 173t189.5 252.5t142.5 232.5t67.5 175.5t33 263t-8.5 346.5t-124.5 275t-195.5 163 t-194 38.5t-183.5 -51t-142.5 -163t-49 -246.5t55 -238.5t134.5 -173.5t165 -77.5t187.5 -12t189.5 12.5t77.5 -18.5t-30.5 -45t-199.5 -63.5t-305.5 -12t-253 126.5t-169.5 242.5t-34.5 267z" />
<glyph unicode=":" horiz-adv-x="438" d="M123 821q0 94 102 94q70 0 70 -84q0 -92 -92 -92q-80 0 -80 82zM135 76q0 94 105 94q30 0 50 -27q17 -25 17 -57q0 -86 -90 -86q-82 0 -82 76z" />
<glyph unicode=";" horiz-adv-x="438" d="M100 92q0 62 90 62q70 0 117 -56.5t47 -136.5q0 -138 -135 -237q-28 -21 -37 -21q-12 0 -12 18q0 15 23 37q71 72 71 162q0 40 -18 68q-11 16 -39 16q-42 0 -73 23q-34 25 -34 65zM154 821q0 94 102 94q70 0 70 -84q0 -86 -93 -86q-79 0 -79 76z" />
<glyph unicode="&#x3c;" horiz-adv-x="578" d="M55 610q0 17 19 33q54 70 162 182q122 127 165 179q18 26 31 26q9 -3 25 -12q11 -9 13 -17q-2 -5 -21 -36q-19 -24 -168 -232q-36 -46 -99 -129l-12 -16l16 -13q55 -41 149 -159q101 -126 150 -168q27 -23 27 -31q-3 -8 -12 -24q-13 -9 -21 -11q-8 0 -33 19 q-28 21 -208 190q-66 62 -152 137q-27 24 -27 33q0 10 13 23q-17 12 -17 26z" />
<glyph unicode="=" horiz-adv-x="700" d="M71 436q-12 4 0 33q5 14 9.5 18.5t16.5 6.5q-1 0 234.5 10t273.5 10q21 0 27 -2q11 -4 0 -29q-9 -20 -27 -22q-4 -2 -238.5 -13.5t-250.5 -11.5h-45zM71 662q-12 3 0 32q5 14 9.5 18.5t16.5 6.5q1 0 252 11q246 10 256 9q19 1 27 -2t0 -28q-10 -21 -27 -23 q-4 -1 -244 -12.5t-260 -11.5h-30z" />
<glyph unicode="&#x3e;" horiz-adv-x="578" d="M74 217q0 13 26 31q45 37 152 169q103 125 147 158l17 13l-13 16q-98 134 -266 361q-18 24 -18 32q0 11 11 22t24 11t30 -26q131 -139 328 -361q18 -16 18 -33q0 -10 -16 -26q12 -13 12 -23t-26 -33q-134 -128 -361 -327q-22 -20 -33 -19q-10 0 -21 11.5t-11 23.5z" />
<glyph unicode="?" horiz-adv-x="696" d="M37 304q0 37 15 55q82 116 90 128q191 294 227 381q78 185 78 416q0 66 -25 147q-30 96 -79 145q-90 92 -184 92q-7 0 -26.5 -1.5t-23.5 -1.5q-18 0 -18 21q0 11 12 39q27 58 43 75q8 17 25 22q34 9 82 9q158 0 256 -178q78 -143 78 -348q0 -221 -123 -457 q-38 -70 -306 -438q-14 -17 -14 -43q0 -25 8 -48q20 -56 43 -92q20 -37 65 -40q15 -8 15 -26q0 -9 -6 -28q-4 -7 -29 -41l-51 -46q-24 -23 -33 -23q-12 0 -35 35q-49 75 -74 180q-10 43 -10 66zM90 -298q0 132 117 132q49 0 49 -103q0 -142 -98 -142q-68 0 -68 113z" />
<glyph unicode="@" horiz-adv-x="1499" d="M45 713q0 281 200.5 481.5t481.5 200.5q325 0 513 -177q179 -169 179 -442q0 -33 -4 -67q-32 -270 -289 -326q-149 -33 -225 -14q-104 25 -121 141q-2 17 -12 4q-38 -49 -104 -88q-78 -45 -144 -45q-57 0 -80 20q-59 54 -59 97q0 8 2 16q12 65 55 209q48 161 68 184 q42 49 156 84q54 17 210 49q10 2 13 19q0 8 16 8q12 0 39 -4q13 0 37 -2q15 0 12 -12l-96 -416q-5 -25 -5 -47q0 -44 32 -94q13 -23 43.5 -56t37.5 -33q282 0 322 306q4 31 4 61q0 243 -167 411q-172 173 -433 173q-195 0 -383 -201q-184 -197 -184 -495q0 -239 135 -398 q160 -188 446 -188q135 0 326 106q9 3 18 -2q17 -9 21 -20q4 -12 -14 -25q-157 -108 -361 -108q-303 0 -494.5 193t-191.5 497zM520 565q-11 -60 12 -84q19 -18 70 -18q66 0 146 61q22 18 28 41q5 18 46.5 214.5t43.5 209.5q3 15 -8 15q-58 0 -162 -46q-44 -19 -92 -120 q-54 -113 -84 -273z" />
<glyph unicode="A" horiz-adv-x="1714" d="M22 -370l3 14l1 5l1 5l557 1779l13 53l12 104l-7 64l-23 35l-28 23l-24 11l-24 6l-26 6l-35 7l-34 1l13 11l22 16l10 5l14 4h327l18 -6l17 -12l10 -18l4 -16l679 -2159l-7 3l-30 22l-18 15l-243 224l-160 542l-5 25l-5 8l-4 7l-8 2l-8 2l-30 4l-652 -1h-8l-5 -5l-1 -5 l-3 -8l-213 -744l-21 -57l-11 -10l-9 -3l-9 -2h-9l-9 1l-15 7l-8 7l-7 11l-2 8v9zM395 505l2 -4l3 -4l5 -3h598l4 4v9l-2 11l-228 844l-16 29l-16 14l-19 2l-18 -2l-18 -11l-17 -33l-272 -827l-5 -19l-1 -6v-4z" />
<glyph unicode="B" horiz-adv-x="1745" d="M18 1776h236v-199q-7 152 -236 199zM251 -397l242 277q-1 81 -1 153q0 497 42 545q47 52 237 52h14q202 -2 271 -8.5t169.5 -96t139.5 -217.5q31 -100 31 -217q0 -31 -2 -64q-10 -154 -99 -253t-291 -100t-286 -10t-97.5 -27.5t14 -26.5t290.5 -10h12q254 0 384 62 q133 63 220 196q72 111 73 243q0 27 -4 53q-18 164 -106 273.5t-176 158.5q-88 48 -95 112q-1 6 -1 11q0 57 68 107q74 54 116 172q33 89 34 183q0 29 -4 59q-14 124 -49.5 200.5t-113 171.5t-171 132.5t-103.5 41.5q-5 2 -194 2t-562 -2zM502 894q0 662 6 723t157 75 q40 4 80 4q113 0 229 -30q158 -40 223 -182q65 -140 75 -258q4 -44 3 -84q0 -68 -10 -122q-16 -88 -64.5 -138t-165.5 -96q-117 -48 -199 -56q-36 -4 -82 -3q-56 -1 -130 5q-122 10 -123 141q0 10 1 21z" />
<glyph unicode="C" horiz-adv-x="2148" d="M19 633q0 291 149 584q121 235 367 398q321 211 824 211q189 0 344 -16q183 -19 240 -63l-44 -309q-50 90 -167 171q-168 85 -497 85q-422 0 -673 -263q-283 -298 -283 -745q0 -491 299 -768q151 -140 305 -190q138 -45 371 -45q173 0 335 76.5t241 200.5q45 72 64 162 q22 -68 86 -231q-119 -131 -394 -231q-216 -79 -543 -79q-278 0 -440 57q-166 58 -324 214q-260 256 -260 781z" />
<glyph unicode="D" horiz-adv-x="2197" d="M36 1772h1348q603 -180 629 -1015q-34 -786 -607 -1040q-150 -71 -534 -71q-88 0 -188 4q-41 17 -41 33q0 14 33 28l104 1l264 13q233 13 432 197q273 306 307 626q12 84 12 171q0 253 -100 529q-157 336 -462 389h-567q-8 1 -16 1q-84 0 -84 -147q0 -23 2 -49v-1563 l-249 -257v1858q-27 201 -283 292z" />
<glyph unicode="E" horiz-adv-x="1919" d="M26 -403h5q353 0 352 413v1484q1 183 -311 261h1518q45 -136 45 -307q0 -99 -15 -211h-44l-7 27q-67 330 -432 372h-407q-89 0 -90 -301v-583h742v-93h-742v-836q0 -160 196 -166q20 -1 39 -1q173 0 337 48q182 53 286 179.5t151 222t77 97.5h3q29 -1 40 -45q3 -12 3 -26 q0 -46 -28 -128q-36 -108 -101 -406z" />
<glyph unicode="F" horiz-adv-x="1692" d="M24 1743h256v-261q-8 200 -256 261zM278 -411l2 2154l1207 -1q45 -136 45 -307q0 -99 -15 -211h-44l-7 27q-67 330 -432 372h-407q-90 -23 -90 -279v-22v-563h272v-143h-272v-792zM807 615v78h308v-289h-76q-4 48 -19 87t-63 79q-49 39 -67 43q-12 3 -45 3q-16 0 -38 -1z M808 680v78q22 -1 38 0q34 0 46 2q18 4 66 43.5t63 78.5t19 87h76v-289h-308z" />
<glyph unicode="G" horiz-adv-x="2082" d="M14 556v17q0 100 22 215q25 123 68.5 228.5t107.5 206.5t160.5 191.5t214 152.5t237.5 101t219 51.5t253 22.5q97 6 178 6q48 0 90 -2q114 -6 186 -18q9 -2 18 -2q62 0 120 74q2 -119 2 -206q0 -234 -14 -234q-2 0 -4 4q-25 50 -44 79t-68 62t-129.5 57.5t-194.5 43.5 q-91 15 -194 15q-24 0 -49 -1q-130 -4 -245.5 -26.5t-212.5 -82.5t-204 -173t-162.5 -249.5t-76.5 -288.5q-12 -86 -12 -165q0 -63 8 -122q16 -134 49 -249.5t101.5 -212t134 -158.5t109 -92.5t128 -68t179.5 -41.5t196 -4t167 4t111 20.5t94.5 56t58 82.5t10.5 123.5t2 173 t-6 145.5q-4 34 -4 61l2 31q0 34 -80 78q-84 46 -232 99h427q19 2 36 2q117 0 117 -73q0 -82 8 -395v-27q0 -290 -166 -368q-173 -83 -269.5 -97.5t-286.5 -22.5q-61 -3 -120 -3q-122 0 -232 11q-163 17 -268 56t-235 152.5t-190 243t-86.5 269.5t-28.5 247z" />
<glyph unicode="H" horiz-adv-x="2367" d="M16 1737q249 -78 249 -249v-1912l245 261v766h1153v-986h486q-221 86 -241 249v1903l-249 -256l-1 -771h-1148v995h-494z" />
<glyph unicode="I" horiz-adv-x="828" d="M12 1786h253v-258q-8 197 -253 258zM264 -411l1 2197h207v-1981zM472 1528v258h253q-246 -61 -253 -258z" />
<glyph unicode="J" horiz-adv-x="1206" d="M46 -212q8 42 61 48q11 2 21 2q41 0 78 -20q46 -26 85.5 -60t83.5 -50q28 -10 63 -10q20 0 42 3q60 9 126 59t105 163t41 200t3 1667h228l-7 -1655q-4 -86 -36.5 -163t-78.5 -138.5t-129.5 -114.5t-191.5 -76q-81 -17 -154 -17q-24 0 -46 2q-94 7 -167.5 27t-104.5 55 q-24 27 -24 60q0 8 2 18zM502 1790h253v-258q-7 197 -253 258z" />
<glyph unicode="K" horiz-adv-x="1927" d="M28 1786h443l1 -1981l-208 -216v1891q0 224 -236 306zM360 710l168 -2l1221 -1114l-447 -3q76 45 76 111q0 109 -209 276zM364 678l817 729q206 164 206 271q0 67 -81 111l455 1l-1221 -1114z" />
<glyph unicode="L" horiz-adv-x="1903" d="M37 -399q32 37 87 51t126.5 42.5t104 100t34.5 227.5v1783l251 -248q-6 -680 -6 -1081q0 -510 10 -572q16 -111 38.5 -150t57.5 -49q36 -11 74 -19q25 -6 110 -5q46 -1 108 1q180 4 240.5 22.5t99.5 31t87.5 63.5t93.5 118t65.5 113.5t48.5 82.5q6 8 11 8q17 1 17 -99 q0 -4 1 -9q0 -123 -14 -233q-14 -114 -30.5 -146.5t-43 -32.5h-1571.5z" />
<glyph unicode="M" horiz-adv-x="2536" d="M24 1773q278 -73 278 -289v-1879h98v1705q17 48 40 48q29 0 70 -74l721 -1703l730 1752q26 21 46 21q33 0 52 -56v-1701h94v1858q0 245 269 318h-498l-693 -1675l-705 1675h-502zM30 -395q265 65 273 278v-278h-273z" />
<glyph unicode="N" horiz-adv-x="2240" d="M-15 1773h317v-323q-10 247 -317 323zM301 1773l1 -2172h94l-1 1720q2 45 23 45q29 0 92 -82l1194 -1699v2001q0 130 173 130h11v57h-457q200 -48 200 -193v-1482l-1195 1675h-135z" />
<glyph unicode="O" horiz-adv-x="1680" d="M44 680q0 -313 34.5 -491t114 -300t216.5 -210q131 -84 218 -84h8q89 5 101 39q2 6 3 10q-1 24 -51 26q-60 2 -177 79q-108 98 -189 271q-105 265 -105 737q6 322 118.5 542.5t214.5 304.5t214 84t251 -77q121 -73 204 -214q80 -133 130 -331q37 -164 37 -376v-32v-26 q0 -308 -68 -505q-71 -252 -288 -421q-110 -38 -126 -72q-2 -5 -2 -9q0 -25 76 -26h1q88 0 222 127q135 128 191 222q177 299 177 792v17q0 442 -146 721q-83 159 -232 245q-124 77 -371 82q-161 0 -297 -69q-189 -107 -288 -264t-149 -389q-42 -170 -42 -368v-35z" />
<glyph unicode="P" horiz-adv-x="1716" d="M-4 1758h370v-257q-11 197 -370 257zM365 -403v2161h420q567 0 709 -221q115 -134 115 -338v-11q0 -443 -624 -572q-201 -21 -268 -21q-34 0 -34 5q1 11 139 44q342 82 530 347q69 158 69 281q0 290 -387 379q-58 4 -108 4q-303 0 -320 -130v-1638z" />
<glyph unicode="Q" horiz-adv-x="2245" d="M42 823q15 220 78 374.5t144.5 270.5t225.5 199.5t341 134.5q146 38 270 38q45 0 86 -5q159 -18 341.5 -68.5t294 -182t179.5 -268t78 -339.5q3 -52 3 -104q0 -153 -23 -309q-30 -210 -93.5 -329t-164.5 -229l238 -177l81 -233l-766 628l-85 238l341 -274q33 -33 62 -33 q61 0 109 139q48 274 48 445q0 59 -6 106q-22 182 -100 379.5t-222.5 311.5t-255.5 154q-99 37 -261 37q-20 0 -41 -1q-190 -5 -280.5 -63.5t-199.5 -174.5t-159 -329q-42 -179 -42 -340q0 -30 1 -60q10 -187 66 -366.5t129 -290.5t187 -189t220 -109q79 -22 174 -22 q34 0 70 3q201 19 267 47t101.5 42.5t61 2t20.5 -35t-68.5 -60t-134.5 -53t-218 -28.5q-90 -7 -158 -7q-44 0 -80 3q-91 8 -235 38t-277.5 125.5t-224.5 263t-114 323.5q-14 95 -14 213q0 77 6 164z" />
<glyph unicode="R" horiz-adv-x="1955" d="M19 1747q220 -67 221 -275v-1874l236 334l4 1630q0 101 245 102q151 -37 232.5 -110t132.5 -161q52 -87 70 -167q12 -51 11 -105q1 -31 -3 -63q-10 -88 -57.5 -153t-100.5 -111q-54 -48 -88 -60q-26 -9 -120 -9q-30 0 -68 1q-31 1 -56 1q-104 0 -126 -13 q-28 -16 -11 -40.5t43.5 -39t73.5 -20t116 -44.5t102 -96.5t81.5 -173.5t95.5 -232t75.5 -208t51 -139t65.5 -93q40 -43 98 -43h10q65 4 124 16.5t120.5 53t97.5 152.5q-68 -2 -91.5 -29t-67.5 -31h-10q-36 0 -56 25q-22 29 -45 62t-43.5 104t-88 224t-165 259t-128 140.5 t-51 59t12 44t63 26.5t108 51.5t147 102t110.5 135.5q40 78 44 224v16q0 136 -68 254q-74 124 -196 180q-124 55 -236 78q-83 17 -547 17q-161 0 -368 -2z" />
<glyph unicode="S" horiz-adv-x="1508" d="M84 1404q28 94 114 188t184 140q79 37 208 37q31 0 66 -3q176 -11 255.5 -84t124.5 -81q3 -1 6 -1q42 0 91 101l25 -536q-46 90 -147 235.5t-153 193.5q-50 46 -212 66q-34 4 -66 5q-120 -1 -208 -59q-112 -74 -147 -158q-19 -44 -19 -90q0 -42 16 -85 q34 -89 102.5 -147.5t207 -117t273.5 -131t270 -163t197 -214.5q56 -112 56 -247v-29q-6 -152 -45 -226.5t-111 -157.5q-72 -84 -210 -166q-121 -72 -303 -71q-23 0 -49 1q-214 11 -372 133q-146 114 -146 152v5q5 14 21 15q24 -1 75 -33q84 -54 157 -98t159 -64 q52 -12 117 -11q42 1 89 5q120 12 197 65.5t118.5 122t71.5 170.5q11 37 11 83q0 81 -34 190q-53 170 -321.5 304.5t-452.5 278.5t-214 266q-16 63 -16 118q0 52 14 98z" />
<glyph unicode="T" horiz-adv-x="1924" d="M12 1233q147 437 612 437h3q148 0 147 -114v-1955l250 322v1637q4 98 81 110h2q524 0 670 -435l-70 431q1 103 -98 103h-1418q-109 0 -110 -103z" />
<glyph unicode="U" horiz-adv-x="1794" d="M37 322q4 -156 38.5 -261t122 -207t238.5 -182q133 -70 297 -69q23 0 45 1q192 11 324.5 109t208 231t96.5 371v1275q1 127 244 175h-576q246 -54 246 -175v-1276q-6 -264 -161 -426q-149 -155 -350 -154h-16q-211 6 -356 128q-144 120 -166 294q-17 132 -17 842 q0 226 2 510l-220 257v-1443z" />
<glyph unicode="V" horiz-adv-x="1814" d="M20 1797l665 -2221l90 599l-400 1288zM625 -8l60 -417l679 1835q154 385 317 395h-579q150 -3 150 -151q0 -95 -61 -249z" />
<glyph unicode="W" horiz-adv-x="2842" d="M17 1814l665 -2217h45l640 1670l575 -1661h44l616 1965q37 136 126 231l-456 -4q166 -73 166 -236q0 -40 -10 -85l-421 -1337l-486 1340q-24 68 -24 123q0 141 156 195h-581q172 -64 184 -176q0 -3 1 -6q0 -138 -473 -1479l-400 1303z" />
<glyph unicode="X" horiz-adv-x="2124" d="M42 1806q155 -49 297 -228l1121 -1704q51 -84 51 -143q0 -113 -181 -142h686q-253 61 -392 334l-1076 1691q-27 40 -27 73q0 92 214 119h-693zM47 -412l712 1q-207 30 -207 149q0 57 48 136l1111 1704q142 179 297 228h-684q205 -27 205 -118q0 -33 -27 -74l-1067 -1691 q-148 -273 -388 -335z" />
<glyph unicode="Y" horiz-adv-x="2026" d="M40 1782l383 -176l522 -721l432 505l255 291l10 80h256l-790 -958q-53 -53 -53 -249q0 -57 4 -126v-529q8 -172 104 -180t136.5 -32.5t57.5 -81.5h-856q-3 14 -3 26q0 34 27 53q37 27 134.5 51.5t138.5 158.5l4 551q4 65 4 118q0 194 -49 236zM1467 1761h253l-245 -258 q88 96 88 160q0 67 -96 98z" />
<glyph unicode="Z" horiz-adv-x="2100" d="M34 1461q164 109 807 109h46q546 -3 546 -159q0 -39 -34 -88l-1341 -1691q39 8 189 8q379 0 1470 -51l171 484h-53q-110 -254 -1035 -254q-198 0 -433 12l1175 1476q220 354 411 434h-1675z" />
<glyph unicode="[" horiz-adv-x="733" d="M223 -357v1943q0 23 19 23h465q14 0 14 -8v-33q0 -12 -12 -12h-254q-35 0 -66 4q-10 1 -13 -4.5t-1 -16.5q6 -37 6 -67v-1673q0 -6 -4 -109q-1 -16 3 -22t15 -4q33 4 45 4h269q12 0 12 -8v-33q0 -12 -10 -12h-459q-29 0 -29 28z" />
<glyph unicode="\" horiz-adv-x="598" d="M20 1466q0 4 17 15q9 4 26 4q13 -13 21 -35q263 -752 500 -1493q15 -27 6 -37q0 -3 -17 -14q-9 -4 -26 -4q-13 12 -21 35q-32 89 -253 748q-221 663 -246 745q-10 32 -7 36z" />
<glyph unicode="]" horiz-adv-x="733" d="M10 -360q0 8 13 8h268q10 0 45 -4q11 -1 14.5 4.5t1.5 21.5q0 14 -1 52t-1 57v1673q0 43 4 67q2 10 0 16q-3 6 -12 5q-29 -4 -66 -4h-253q-13 0 -13 12v33q0 8 15 8h462q19 0 19 -23v-1943q0 -28 -29 -28h-457q-10 0 -10 12v33z" />
<glyph unicode="^" horiz-adv-x="778" d="M49 1038q-2 9 17 35q100 149 260 379q7 11 22 27q3 0 17 -11q3 -4 10 -10q4 2 10 10q10 10 16 11q5 -3 23 -27q98 -143 260 -379q18 -26 16 -35q-3 -11 -10 -28q-9 -6 -16 -9q-7 9 -23 25q-97 86 -268 262l-8 17l-8 -17q-42 -51 -134 -136q-110 -100 -135 -126 q-7 -11 -22 -25q-3 1 -17 9q-8 12 -10 28z" />
<glyph unicode="_" horiz-adv-x="770" d="M0 -307q11 21 29 20q452 -7 716 0q18 1 29 -20q12 -22 0 -41q-10 -17 -29 -17h-716q-19 0 -29 17q-12 19 0 41z" />
<glyph unicode="`" d="M80 1202q-10 10 10 10q89 0 135 7q16 2 31 -11q83 -64 221 -172q32 -25 15 -39q-17 -10 -52 7q-134 63 -317 167q-29 17 -43 31z" />
<glyph unicode="a" horiz-adv-x="1105" d="M22 -384l2 8v3l1 3l331 1056l8 31l6 62l-3 38l-14 21l-17 14l-14 6l-14 3l-16 4l-21 5h-20l8 6l13 10l6 3l9 3h194l10 -4l11 -8l5 -10l2 -10l404 -1282l-4 2l-18 14l-10 8l-145 134l-95 321l-3 15l-3 5l-3 4l-5 1l-4 1l-17 2l-388 -1h-5l-3 -2v-3l-2 -5l-127 -441 l-12 -34l-7 -6l-5 -1l-5 -2h-5l-6 1l-9 4l-4 4l-5 7l-1 5v5zM255 169l1 -3l2 -2l3 -2h373l3 3v5l-2 7l-142 527l-10 18l-10 9l-12 1l-11 -1l-11 -7l-11 -21l-170 -516l-3 -12v-4v-2z" />
<glyph unicode="b" horiz-adv-x="1219" d="M31 -397q162 39 167 170v-170h-167zM32 900h167v-170q-5 130 -167 170zM197 -397h140q1 549 30 581q28 31 143 31h7q121 -1 161.5 -4.5t101 -57t84.5 -129.5q18 -59 18 -128q0 -20 -2 -40q-6 -92 -70 -138t-240 -57q-24 -1 -44 -2q-136 -1 -170 61q-17 31 -32 32 q-20 0 -34 -50q-16 -55 -16 -79q0 -14 6 -16q16 -5 247 -5q3 0 6 -1q225 0 304 37t131 117q43 66 43 145q1 16 -1 32q-10 97 -63.5 162.5t-106 94.5t-56.5 67v6q0 34 40 64q44 32 70 103q20 54 20 110q0 17 -2 35q-8 74 -30 119.5t-68 102.5t-102 79.5t-62 24.5q-3 1 -96 2 q-112 0 -356 -2zM347 373q0 396 4 432.5t94 44.5q23 2 46 2q69 0 139 -18q94 -24 133 -108.5t45 -154.5q2 -26 2 -49q0 -40 -6 -74q-10 -52 -39 -82t-99 -57.5t-118 -32.5q-22 -2 -51 -2q-34 0 -77 3q-73 6 -73 84v12z" />
<glyph unicode="c" horiz-adv-x="1354" d="M19 196q0 170 88 341q70 138 214 233q188 124 482 124q110 0 201 -9q107 -12 141 -37l-26 -181q-30 52 -98 100q-98 50 -291 50q-246 0 -393 -153q-166 -176 -166 -436q0 -287 175 -449q89 -82 178 -111q81 -26 218 -26q101 0 195.5 45t140.5 117q26 42 38 94 q12 -39 50 -135q-69 -77 -230 -134q-127 -48 -318 -48q-163 0 -257 34q-98 34 -190 125q-152 150 -152 456z" />
<glyph unicode="d" horiz-adv-x="1386" d="M36 887h793q355 -106 370 -597q-20 -462 -357 -612q-88 -41 -312 -41q-53 0 -113 2q-45 19 -5 36h62l155 8q137 8 254 116q161 180 181 368q7 49 7 100q0 149 -59 312q-92 197 -272 228h-333q-5 1 -10 1q-49 0 -49 -88q0 -13 1 -27v-919l-147 -152v1093q-15 118 -166 172 z" />
<glyph unicode="e" horiz-adv-x="1243" d="M26 -403q215 0 214 249v890q1 109 -186 156h873q27 -81 27 -185q0 -59 -9 -125q-71 214 -290 239h-244q-54 0 -55 -180v-351h292v-55h-292v-502q0 -95 118 -99h26q104 0 200 28q109 32 171.5 108t90.5 133t46 59q18 1 26 -27q2 -7 2 -17q0 -28 -16 -76q-22 -65 -62 -244z " />
<glyph unicode="f" horiz-adv-x="1076" d="M27 899h869l18 -315q-71 217 -293 242h-248q-54 -13 -54 -166v-17v-342h280v-88h-280v-432h-155l-2 959q-30 116 -135 159zM36 -359q28 1 52 10.5t48 38.5t26.5 40.5t1.5 50.5h76v-187h-204v47zM232 -218h86q-1 -40 1 -51t26 -40t48 -38.5t53 -11.5v-47h-214v188z" />
<glyph unicode="g" horiz-adv-x="1317" d="M14 164v8q0 61 14 130q14 74 40 137.5t64.5 124t96.5 114.5t128 91t142 60.5t131.5 31t151.5 13.5q60 3 110 3q27 0 50 -1q68 -3 111 -11q6 -1 12 -1q36 0 71 44q1 -74 1 -128q0 -135 -8 -135q-1 0 -3 3q-14 29 -25.5 46.5t-40.5 37t-77.5 34.5t-116.5 26q-54 10 -114 10 q-16 0 -32 -1q-78 -3 -147 -16.5t-127 -49.5t-122 -103.5t-97.5 -149t-46.5 -172.5q-6 -51 -6 -99q0 -38 4 -73q10 -81 29.5 -149.5t60.5 -126.5t80.5 -94.5t65.5 -55t77 -41t107.5 -25t117 -2.5t100 2.5t66.5 12.5t56.5 33.5t34.5 49t6 74t1 104t-4 86.5q-1 13 -1 55 q0 20 -47 47q-50 27 -138 59h255q10 1 19 1q72 0 72 -44q0 -49 5 -236v-17q0 -173 -99 -220q-103 -49 -161.5 -58t-171.5 -13q-33 -1 -66 -1q-76 0 -145 7q-98 9 -161 32t-140.5 91.5t-113.5 146t-52 160.5t-17 148z" />
<glyph unicode="h" horiz-adv-x="1329" d="M16 -424h303v1323l-151 1v-1170q0 -106 -152 -154zM16 900q152 -48 152 -153v-1171l151 1v1323h-303zM162 -424h303q-152 48 -152 154v1170l-151 -1v-1323zM319 205h749l-3 85h-746v-85zM875 -424h303v1323l-150 1v-1170q0 -106 -153 -154zM875 900q153 -48 153 -153 v-1171l150 1v1323h-303z" />
<glyph unicode="i" horiz-adv-x="591" d="M19 -411q141 50 141 184v1129l124 -129v-1000q0 -132 149 -184h-414z" />
<glyph unicode="j" horiz-adv-x="897" d="M45 -306q5 26 37 29.5t59.5 -12t51 -36t49.5 -29.5q18 -6 39 -6q12 0 25 2q37 5 76.5 35t62.5 98.5t25 120.5v209q0 250 -1 792h136v-994q-2 -52 -22 -98.5t-47.5 -83t-77.5 -68.5t-115 -45q-50 -11 -95 -11q-14 0 -26 1q-57 4 -101 16t-63 33q-14 17 -14 36q0 5 1 11z M605 725v172h167q-163 -41 -167 -172z" />
<glyph unicode="k" horiz-adv-x="1101" d="M32 -281l1 1182h264q-141 -49 -141 -183v-1129zM86 259l101 -2l729 -664l-267 -2q45 27 45 66q0 65 -125 165zM89 240l488 435q123 98 123 162q0 40 -49 66l272 1l-730 -665z" />
<glyph unicode="l" horiz-adv-x="542" d="M34 -401v1150l115 151v-1046q5 -95 24 -137.5t62.5 -60t73.5 -25t52 -32.5h-327z" />
<glyph unicode="m" horiz-adv-x="1667" d="M24 896q167 -44 167 -174v-1125h58v1021q10 29 24 29q18 0 42 -45l433 -1021l437 1051q16 13 28 13q20 0 32 -34v-1019h56v1113q0 147 161 191h-299l-415 -1004l-422 1004h-302zM28 -403q158 38 163 166v-166h-163zM1300 -242q5 -128 164 -166h-164v166z" />
<glyph unicode="n" horiz-adv-x="1195" d="M20 897q176 -86 173 -175v-1138h57v1040q1 27 14 27q17 0 55 -50l722 -1028l1 1324h-165q120 -29 120 -116v-897l-723 1013h-254zM250 -249q5 -128 164 -167h-164v167z" />
<glyph unicode="o" horiz-adv-x="1415" d="M28 230q0 -187 42 -314.5t173 -230t240.5 -102.5t120 21t-40 22t-147.5 47q-90 59 -157 163q-87 158 -87 440q5 193 98.5 325t178 182t177.5 50t208 -46q101 -43 170 -128q66 -80 108 -198q30 -96 30 -221v-23v-19q0 -182 -56 -298q-59 -139 -161 -211 q-170 -51 -182.5 -72t21.5 -31q6 -2 14 -1q38 0 120 35q100 43 165 94q38 34 84 90q147 167 147 460v12q0 265 -121 431q-69 96 -192 147q-103 46 -308 49q-134 0 -247 -41q-157 -64 -239 -158t-124 -233q-35 -102 -35 -222v-19z" />
<glyph unicode="p" horiz-adv-x="1139" d="M62 904h166v-169q-4 129 -166 169zM227 904h255q343 0 428 -134q70 -81 70 -205q-51 -287 -404 -287q-105 0 -237 26q-98 68 -98 89q0 11 21 11q39 0 149 -34q108 -32 192 -32q149 0 222 102q42 96 42 170q0 176 -234 229q-37 2 -68 2q-181 0 -192 -78v-989l-145 -177z " />
<glyph unicode="q" horiz-adv-x="995" d="M66 461q0 180 107 301.5t263 121.5q106 0 214 -63q39 -18 71 -18q76 0 115 104l2 -1305l-135 239q2 87 2 329q0 29 -21 7q-44 -42 -105 -77q-119 -64 -199 -64q-101 0 -161 39q-27 19 -71 75q-82 106 -82 311zM177 490q0 -90 38 -178q31 -68 59 -93q78 -65 176 -65 q89 0 162 27q62 24 85 56q12 12 12 32q0 344 -14 456q-3 12 -15 31q-22 16 -96 37q-88 26 -158 26q-77 0 -119 -28q-22 -14 -59 -63q-71 -96 -71 -238z" />
<glyph unicode="r" horiz-adv-x="1178" d="M19 885q132 -40 133 -165v-1127l142 201l2 980q0 61 148 61q90 -22 139 -66t80 -97q31 -52 42 -100q7 -30 7 -62q0 -19 -2 -39q-6 -53 -34.5 -92t-60.5 -67t-52.5 -35.5t-135.5 -22.5q-33 -4 -58 -5q-61 1 -71 27q-14 36 -22.5 4.5t16.5 -57.5q23 -24 74 -24h8h9 q53 1 91 -21q42 -24 61 -58.5t48.5 -104t57.5 -139.5t45 -125.5t30.5 -83.5t39.5 -56q24 -26 59 -26q3 1 6 1q39 2 74.5 9.5t72.5 32t59 91.5q-41 -1 -55 -17.5t-40.5 -19t-40 15t-27 37.5t-26 62.5t-53 134.5t-99 155.5t-77 84.5t-31 35.5t7 26.5t38 16t65 31t88.5 61.5 t66.5 81t26.5 134.5q0 5 1 9q0 83 -42 154q-44 75 -118 108q-73 33 -141 47q-50 10 -326 10q-98 0 -225 -1z" />
<glyph unicode="s" horiz-adv-x="909" d="M25 682q17 57 68 113.5t111 83.5q48 22 125 22q19 1 39 -1q105 -6 152 -50q48 -46 75 -50h4q25 0 54 60l15 -321q-28 54 -88 141.5t-91 115.5t-128 40q-20 2 -39 3q-72 0 -125 -35q-67 -44 -88 -96q-11 -26 -10 -53q0 -25 9 -51q20 -53 61 -88.5t124 -70.5t164 -78.5 t161 -97.5q80 -55 118 -129q34 -67 34 -147v-17q-4 -90 -27 -135.5t-67 -95.5q-44 -51 -126 -99q-73 -43 -181 -42h-29q-128 6 -223 80q-87 68 -87 92q0 11 12 11q15 0 45 -19q50 -32 94 -58q43 -27 95 -39q32 -7 72 -7q25 0 52 2q72 8 118 40t70 73q26 41 44 103q7 23 6 50 q0 48 -20 112q-32 102 -193 182.5t-271 166.5t-128 159q-9 38 -9 71q0 31 8 59z" />
<glyph unicode="t" horiz-adv-x="1313" d="M21 579q88 263 367 263q90 0 89 -69v-1172l150 194v980q3 59 49 67q316 0 403 -262l-42 259q1 61 -59 61h-849q-66 0 -67 -61z" />
<glyph unicode="u" horiz-adv-x="1139" d="M37 33q2 -92 23 -154.5t74 -124.5q52 -60 142 -108q79 -42 177 -42h27q114 6 194 65t125.5 138.5t57.5 221.5v764q0 75 146 104h-344q146 -33 146 -104v-765q-3 -158 -96 -254q-89 -93 -209 -92h-10q-126 4 -213 76t-99 176q-10 83 -11 559q0 114 1 250l-131 154v-864z " />
<glyph unicode="v" horiz-adv-x="1133" d="M10 902l397 -1326l53 358l-238 769zM371 -175l36 -250l406 1096q92 230 189 236h-346q90 -2 90 -90q0 -57 -37 -149z" />
<glyph unicode="w" horiz-adv-x="1806" d="M17 910l394 -1313h27l378 988l341 -982h26l364 1163l47 136l-85 -2l-314 -981l-370 981l-354 -983l-237 771z" />
<glyph unicode="x" horiz-adv-x="1374" d="M42 899q91 -29 176 -134l662 -1007q30 -50 30 -85q0 -67 -107 -84h406q-150 37 -232 198l-636 999q-16 24 -16 43q0 54 127 70h-410zM45 -412l421 1q-122 18 -122 88q0 34 28 81l656 1007q85 105 176 134h-405q122 -16 122 -69q0 -19 -16 -44l-630 -999 q-88 -161 -230 -199z" />
<glyph unicode="y" horiz-adv-x="1349" d="M39 917l233 -107l316 -438l262 306l154 177l6 48h156l-1068 -1320l42 232q318 322 318 481q0 48 -29 81zM904 903h153l-148 -155q54 58 54 97q0 40 -59 58z" />
<glyph unicode="z" horiz-adv-x="1447" d="M34 731q102 67 504 67h29q341 -2 341 -98q0 -24 -21 -54l-838 -1030q24 5 115 5q236 0 923 -32l107 296h-34q-69 -154 -643 -154q-125 0 -275 7l735 899q138 216 257 265h-1048z" />
<glyph unicode="{" horiz-adv-x="764" d="M53 608q0 33 41 33q48 0 92 26q52 31 52 78q0 97 -35 218.5t-35 226.5q0 159 86 273q91 122 231 122h195q14 0 14 -8v-33q0 -12 -12 -12h-131q-117 0 -184 -123q-60 -110 -60 -271q0 -100 23.5 -215.5t23.5 -173.5q0 -105 -151 -143l88 -52q63 -47 63 -108 q0 -57 -23.5 -188.5t-23.5 -231.5q0 -166 54 -270q64 -123 190 -123h131q12 0 12 -12v-33q0 -8 -14 -8h-195q-159 0 -244 121q-73 106 -73 274q0 105 35 241.5t35 233.5q0 49 -52 89q-47 36 -92 36q-41 0 -41 33z" />
<glyph unicode="|" horiz-adv-x="590" d="M256 -363q4 220 4 905q1 745 -4 938q0 17 20 29q23 12 41 0q17 -11 17 -29v-1843q0 -18 -17 -29q-18 -12 -41 0q-20 11 -20 29z" />
<glyph unicode="}" horiz-adv-x="704" d="M36 -379q0 12 13 12h131q125 0 189 123q54 104 54 270q0 100 -23.5 231.5t-23.5 188.5q0 61 64 108l88 52q-152 38 -152 143q0 58 23.5 173.5t23.5 215.5q0 161 -59 271q-67 123 -184 123h-131q-13 0 -13 12v33q0 8 15 8h194q141 0 232 -122q86 -114 86 -273 q0 -105 -35 -226.5t-35 -218.5q0 -47 52 -78q43 -26 91 -26q41 0 41 -33t-41 -33q-44 0 -91 -36q-52 -40 -52 -89q0 -97 35 -233.5t35 -241.5q0 -168 -74 -274q-84 -121 -244 -121h-194q-15 0 -15 8v33z" />
<glyph unicode="~" horiz-adv-x="596" d="M14 459q-6 12 11 37q54 84 174 84q49 0 120 -35q122 -60 154 -60q31 0 55 27q10 12 29 31q7 4 25 -31q4 -13 -13 -37q-57 -84 -174 -84q-60 0 -123 35q-107 59 -151 59q-29 0 -55 -26q-10 -13 -27 -31q-13 -5 -25 31z" />
<glyph unicode="&#xa1;" horiz-adv-x="682" d="M63 1735q0 36 28 61t64 25q92 0 92 -86q0 -96 -110 -96q-74 0 -74 96zM75 1537q0 33 26 33q-4 0 88.5 -102t117.5 -134q-59 -25 -53 -120.5t8.5 -767.5t90.5 -844l-252 286q-13 157 -19.5 904.5t-6.5 744.5z" />
<glyph unicode="&#xa2;" horiz-adv-x="903" d="M76 723q0 95 22 174q31 109 111 178q89 78 245 78q71 0 125 -20l60 188l35 -6l-60 -199q37 -18 76 -55q53 -50 53 -90q0 -43 -35 -43q-47 0 -92 45q-19 19 -33 41l-176 -596q39 -12 144 -12q112 0 190 55q10 7 25 18q4 2 12 2q10 -9 10 -18q0 -12 -45 -47 q-143 -113 -311 -113q-41 0 -60 2l-40 -137l-46 6l41 139q-16 6 -51 21q-85 43 -149 160q-51 92 -51 229zM196 782q0 -176 113 -297q29 -30 59 -49l191 629q-14 14 -39 31q-24 4 -70 4q-53 0 -71 -4q-74 -17 -113 -64q-70 -82 -70 -250z" />
<glyph unicode="&#xa3;" horiz-adv-x="1027" d="M35 193q7 68 68 111t139 43q103 0 198 -57q21 55 26 151q4 83 -32 192q-73 -4 -187 -16q-18 -3 -20 10q-12 29 -11 53q2 15 12 15l177 1q-8 17 -28 53q-84 143 -84 267q0 14 1 25q19 163 117 259q95 94 233 95q129 1 220 -65q38 -27 73 -75q39 -54 35 -85q-1 -2 -8.5 -10 t-13.5 -9q-3 0 -15 19q-85 135 -213 134q-99 -1 -145 -27q-51 -30 -89 -93q-57 -77 -49 -217q6 -88 58 -217q8 -17 22 -53l293 -6q10 0 8 -12q-1 -26 -5 -35q0 -8 -9 -8l-267 -2q31 -87 22 -145q-23 -163 -72 -228q76 -52 153 -104q92 -57 155 -57q125 0 125 97 q0 71 -110 71q-65 0 -97 -48q-17 -26 -34 -26q-22 0 -22 20l22 32q19 27 63.5 48.5t81.5 21.5q156 0 156 -113q0 -81 -62 -128.5t-168 -47.5q-217 0 -340 127q-102 -106 -207 -106q-185 0 -170 145zM100 139q-3 -94 109 -94q89 0 166 94q-80 80 -146 80q-118 0 -129 -80z " />
<glyph unicode="&#xa5;" horiz-adv-x="1208" d="M10 1276v29q0 14 13 14h448q14 0 14 -12v-31q0 -10 -8 -10h-115q-26 0 -26 -21q0 -15 12 -41q62 -104 182 -311h275q79 136 100 180q45 95 45 168q0 25 -26 25h-88q-9 0 -9 8v35q0 10 9 10h354q8 0 8 -8v-37q0 -8 -6 -8h-70q-26 0 -55 -47l-172 -285q-7 -10 -27 -41h236 q10 0 10 -12v-43q0 -9 -8 -9h-277q-129 -203 -135 -217q-10 -24 -10 -32v-64h420q5 0 7.5 -2t2.5 -10v-43q0 -8 -8 -8h-424v-213q0 -187 39 -187h172q5 0 7.5 -2t2.5 -10v-33q0 -8 -8 -8h-539q-14 0 -14 12v27q0 14 12 14h164q17 0 17 25v375h-404q-14 0 -14 12v37 q0 14 12 14h403v55q0 31 -10 43q-16 21 -133 215h-258q-14 0 -14 13v37q0 14 12 14h221q-26 43 -80.5 132t-109 165t-101.5 76h-36q-9 0 -13 10zM567 829l86 -141q13 -16 21 -6l94 147h-201z" />
<glyph unicode="&#xa6;" d="M23 1211q20 12 47 -6q61 -39 201 -132q72 52 195 132q28 16 47 6q6 -5 -17 -32q-55 -72 -139 -174q-9 -13 -17 -13q-20 -2 -61 -2q-61 0 -71.5 2t-18.5 9q-66 66 -150 178q-21 28 -16 32z" />
<glyph unicode="&#xa7;" horiz-adv-x="860" d="M53 825q0 185 106 317q121 150 328 150q98 0 173 -31.5t75 -89.5q0 -46 -66 -46q-25 0 -48 7.5t-82 53.5q-52 41 -80 41q-64 0 -86 -6q0 -75 188 -263q232 -230 232 -434q0 -184 -107 -314q-121 -149 -332 -149q-92 0 -166 27q-77 28 -77 92q0 44 65 44q25 0 48 -6.5 t83 -47.5q52 -35 80 -35q88 0 88 62q0 17 -61 73q-122 114 -129 121q-232 232 -232 434zM150 891q0 -121 143 -254q68 -59 199 -180q65 -64 81 -162q-41 -82 -53 -148q193 95 193 332q0 119 -146 254q-67 60 -196 180q-75 73 -75 170q0 30 7 62q6 28 23 67 q-176 -107 -176 -321z" />
<glyph unicode="&#xa8;" d="M33 1104q0 33 30 69q36 44 89 44t53 -58q0 -47 -43 -83q-37 -32 -70 -32q-59 0 -59 60zM338 1104q0 33 30 69q36 44 89 44t53 -58q0 -47 -43 -83q-36 -32 -70 -32q-59 0 -59 60z" />
<glyph unicode="&#xa9;" horiz-adv-x="1106" d="M59 838q0 204 145 348.5t349 144.5t349 -144.5t145 -348.5q0 -205 -145 -349.5t-349 -144.5t-349 144.5t-145 349.5zM109 838q0 -191 128 -324t316 -133t315 133t127 324q0 190 -127 323t-315 133t-316 -133t-128 -323zM256 819q0 89 41 180q33 73 96 119q88 64 221 64 q58 0 91 -4q43 -6 61 -15q4 -2 4 -4q0 -4 -6 -53q0 -29 -4 -47q-2 -8 -4 -8t-2 4q-4 8 -6 16q-11 18 -35 33q-44 26 -133 26q-93 0 -172 -79q-72 -72 -72 -217q0 -148 70 -222q73 -77 178 -77q34 0 88 26q32 22 57 64q12 27 14 43q0 8 2 8q2 -1 3 -4q9 -18 20 -41 q6 -19 10 -27q2 -3 2 -4t-2 -4q-38 -47 -98 -72q-64 -26 -150 -26q-127 0 -204 86q-70 77 -70 235z" />
<glyph unicode="&#xaa;" horiz-adv-x="588" d="M53 641v21q0 19 24 21q-5 0 40 -1q200 -3 397 0q64 1 64 -20v-19q0 -16 -7 -19t-39 -3h-434q-32 0 -38.5 2.5t-6.5 17.5zM53 862q0 71 39 125q29 40 94 69.5t174 51.5q5 0 5 8v133q-9 34 -29 45q-25 15 -70 15q-69 0 -90 -13q-10 -8 -10 -14l2 -20q0 -31 -16 -56 q-21 -41 -62 -41q-29 0 -29 39q0 26 30 65.5t67 61.5q65 39 176 39q80 0 108 -31q29 -24 29 -98q0 -51 -6 -154.5t-6 -117.5q0 -62 33 -101q25 -30 69 -39q17 -12 17 -14q-1 -4 -9 -12q-27 -34 -53 -47q-5 -8 -16 -8q-42 0 -82 38.5t-49 81.5q-35 -49 -80 -73 q-71 -39 -119 -39q-51 0 -78 20q-39 30 -39 86zM147 915q0 -48 18.5 -62.5t59.5 -14.5q51 0 113 49q6 6 14 28q8 70 8 144q0 4 -4 4q-53 0 -110 -27q-99 -45 -99 -121z" />
<glyph unicode="&#xab;" horiz-adv-x="829" d="M109 512q-2 16 18 33q34 43 128 131q101 93 138 137q18 27 31 27q8 -3 25 -13q8 -12 10 -20q0 -1 -19 -33q-100 -129 -204 -268l-13 -17l19 -24q56 -67 204 -211q27 -18 27 -31q-3 -8 -12 -24q-11 -13 -17 -13q-4 2 -36 21q-56 43 -269 223q-25 22 -26 33zM395 520 q-2 16 18 33q34 43 128 131q101 93 138 137q18 27 31 27q8 -3 24 -13q9 -12 11 -20q0 -1 -19 -33q-100 -129 -205 -268l-12 -17l19 -24q56 -67 204 -211q27 -18 27 -31q-3 -8 -12 -24q-8 -12 -17 -11q-9 0 -36 19q-56 43 -269 223q-25 22 -26 33z" />
<glyph unicode="&#xac;" horiz-adv-x="987" d="M145 594q0 24 27 51l606 -4q22 -21 21 -37t-13 -37l-2 -248q0 -20 -62 -20q-57 0 -57 14q0 16 2 254l-501 2q-21 1 -21 25z" />
<glyph unicode="&#xad;" horiz-adv-x="698" d="M88 434q0 26 16 33q355 148 471 192q22 9 25 9q10 0 10 -27q0 -24 -16 -31q-5 -3 -228 -97t-237 -99l-29 -11q-12 0 -12 31z" />
<glyph unicode="&#xae;" horiz-adv-x="1106" d="M59 838q0 204 145 348.5t349 144.5t349 -144.5t145 -348.5q0 -205 -145 -349.5t-349 -144.5t-349 144.5t-145 349.5zM109 838q0 -191 128 -324t316 -133t315 133t127 324q0 190 -127 323t-315 133t-316 -133t-128 -323zM323 1148q63 -19 63 -78v-536l67 96l2 466 q0 28 70 29q43 -11 66 -32t38 -46t20 -47.5t2 -47.5t-16.5 -44t-28.5 -32t-25 -17t-53.5 -2.5t-52 -3t-3.5 -11.5t12.5 -11.5t21 -6t33 -12.5t29 -27.5t23.5 -49.5t27.5 -66.5t21.5 -59.5t14.5 -39.5t19 -27t31 -12t35.5 5t34.5 15t27.5 43.5q-19 -1 -26 -8.5t-19.5 -8.5 t-19 7t-13 17.5t-12 30t-25 64t-47.5 74t-36.5 40t-11.5 19.5t3.5 14t15 6t30.5 13.5t42 28t31.5 38.5t13 64t-19.5 77.5t-56 51.5t-67.5 22.5t-261.5 3.5z" />
<glyph unicode="&#xb0;" horiz-adv-x="578" d="M106 1182q0 75 54 128.5t129 53.5t128.5 -53.5t53.5 -128.5t-53.5 -128t-128.5 -53q-76 0 -129.5 53t-53.5 128zM158 1182q0 -55 38.5 -94t92.5 -39t92.5 39t38.5 94t-39 95t-92 40q-54 0 -92.5 -40t-38.5 -95z" />
<glyph unicode="&#xb1;" horiz-adv-x="987" d="M145 610q0 29 10 56q9 24 17 24q-3 0 86.5 -1t165.5 -1q0 79 2 171t2 83q0 21 39 21q25 0 52.5 -9.5t27.5 -17.5q0 -6 -2 -89t-2 -159q81 0 160.5 -2t74.5 -2q21 0 21 -57q0 -62 -15 -62q12 0 -73 1t-168 1q0 -79 -1 -162t-1 -76q0 -20 -62 -20q-57 0 -57 14q0 -6 1 79 t1 165q-77 0 -171.5 2t-86.5 2q-21 0 -21 39zM156 158q0 47 27 47q57 0 303.5 -2t280.5 -2q21 0 21 -33q0 -36 -15 -36q-53 0 -302.5 1.5t-293.5 1.5q-21 0 -21 23z" />
<glyph unicode="&#xb4;" d="M55 997q-10 23 15 39l221 172q15 13 31 11q49 -7 137 -7q18 0 4 -14q-10 -10 -39 -27q-139 -79 -318 -167q-43 -26 -51 -7z" />
<glyph unicode="&#xb5;" horiz-adv-x="1083" d="M6 872v33q0 10 8 10h123q5 0 49.5 3.5t53.5 3.5q73 8 65 8q17 0 17 -27q0 -2 -2.5 -305.5t-2.5 -329.5q0 -94 42 -130q36 -32 122 -32q96 0 281 82q10 0 10 17v514q0 139 -41 139h-129q-12 0 -12 10v33q0 10 8 10h139q61 0 104 7q58 8 60 8q14 0 14 -29q0 -4 -2 -314.5 t-2 -326.5q0 -141 92 -199q13 -7 13 -16t-9 -14q-25 -10 -63 -27q-10 -6 -31 -20q-6 -7 -18 -7q2 0 -27 15q-53 33 -86 149q-5 17 -20 4q-10 -8 -195 -116q-62 -37 -207 -37q-37 0 -65 24q15 -254 6 -351q-1 -13 -14 -30q-44 -58 -93 -88q-22 -15 -84 -44q-22 -10 -26 7 q-3 11 6 28q45 93 67 280q23 198 23 346v55v395q0 252 -41 252h-119q-14 0 -14 10z" />
<glyph unicode="&#xb6;" horiz-adv-x="1028" d="M72 964q0 135 102 267q35 44 117 83q103 48 217 48q21 0 100 -2t127 -2h203q12 0 12 -11v-34q0 -9 -14 -9h-55q-20 0 -21 -23v-50q-4 -66 -4 -506q0 -374 -50 -512q-74 -203 -304 -203q-90 0 -158 24.5t-68 75.5q0 46 67 46q19 0 37.5 -5.5t75.5 -44.5q49 -35 76 -35 q86 0 86 176v369q0 8 -8 6q-87 -34 -186 -34q-171 0 -260 114q-92 119 -92 262zM276 942q0 -163 54 -235q51 -70 151 -70q80 0 127 25q10 5 10 18q0 7 -1 139t-1 142q0 254 -6 307q-1 9 -4 20q-7 2 -49 2q-129 0 -209 -112q-72 -101 -72 -236zM633 63q116 27 148 299 q12 97 12 355q0 501 4 573q-30 4 -111 -2q2 -164 2 -432q0 -46 2.5 -173.5t2.5 -199.5q0 -375 -60 -420z" />
<glyph unicode="&#xb7;" horiz-adv-x="389" d="M98 834q0 96 111 96q74 0 74 -96q0 -36 -28 -61t-65 -25q-92 0 -92 86z" />
<glyph unicode="&#xb8;" d="M162 -297q0 4 2 8q11 15 22 8q57 -30 82 -30q99 0 99 108q0 82 -80 82q-24 0 -47 -14q-12 -7 -31 12q-12 10 0 31q28 38 63 92h37l-45 -76q17 4 31 4q154 0 154 -147q0 -60 -43 -101.5t-111 -41.5q-76 0 -125 49q-8 6 -8 16z" />
<glyph unicode="&#xba;" horiz-adv-x="653" d="M37 641v21q0 15 8.5 17.5t54.5 2.5h455q45 0 54 -2.5t9 -17.5v-19q0 -16 -6.5 -19t-38.5 -3h-491q-33 0 -39 2.5t-6 17.5zM37 1053q0 108 43 182q40 70 115 106q58 29 161 29q88 0 138 -31q63 -39 96 -118q28 -70 28 -162q0 -84 -28 -154q-34 -82 -121 -129 q-65 -35 -141 -35q-84 0 -129 19q-84 34 -123 116.5t-39 176.5zM147 1110q0 -119 39 -205q31 -68 82 -99q34 -20 80 -20q55 0 86 19q39 29 60 82q18 47 18 139q0 134 -63 208.5t-166 74.5q-46 0 -58 -3q-24 -7 -43 -34q-35 -52 -35 -162z" />
<glyph unicode="&#xbb;" horiz-adv-x="829" d="M59 223q0 13 27 31q53 44 109 108q71 79 96 103l18 24l-12 17q-104 139 -205 268q-20 23 -18 33q3 7 10 20q12 11 25 13q13 0 30 -27q38 -44 138 -137q95 -88 129 -131q19 -17 18 -33l-4 -49q-1 -11 -27 -33q-88 -76 -268 -223q-27 -19 -33 -19q-8 0 -20 11 q-11 12 -13 24zM356 223q0 13 27 31q53 44 109 108q71 79 96 103l18 24l-12 17q-105 139 -205 268q-21 25 -18 33q3 7 10 20q12 11 25 13q12 0 30 -27q38 -44 138 -137q95 -88 128 -131q20 -17 19 -33l-4 -49q-1 -11 -27 -33q-88 -76 -268 -223q-27 -19 -33 -19q-8 0 -20 11 q-11 12 -13 24z" />
<glyph unicode="&#xbc;" horiz-adv-x="1580" d="M176 1148q156 124 198 145t40 21q13 0 13 -18q0 2 -3.5 -416t0.5 -514l-134 -114q43 93 44 455.5t8 448t-166 -7.5zM219 19q-6 12 16 34q444 639 915 1281q14 19 30 28q26 -8 35 -31q3 -5 -16 -33q-55 -79 -454 -639q-408 -573 -461 -643q-14 -19 -29 -27q-31 6 -36 30z M785 315q0 11 8 20q30 28 236 269q116 138 267 304q18 12 33 12q14 0 14 -16q0 -4 -14 -251t-14 -254q0 -13 12 -11q9 0 66.5 5t61.5 5q10 0 10 -6q0 -3 -7 -20q-14 -31 -33 -69q-4 -8 -13 -8q-44 4 -86 4q-14 0 -14 -11q0 -4 3.5 -121t3.5 -128q0 -21 -13 -25 q-4 -3 -52 -19q-52 -18 -58 -18q-19 0 -19 18q0 5 8 144t8 145q0 13 -16 13h-367q-25 0 -25 18zM906 393q1 -3 9 -3h271q13 0 16 3t3 10.5t5.5 163.5t5.5 158q0 18 -23 -1t-101 -114l-98 -113q-89 -101 -88 -104z" />
<glyph unicode="&#xbd;" horiz-adv-x="1580" d="M176 1148q156 124 198 145t40 21q13 0 13 -18q0 2 -3.5 -416t0.5 -514l-134 -114q43 93 44 455.5t8 448t-166 -7.5zM219 19q-6 12 16 34q444 639 915 1281q14 19 30 28q26 -8 35 -31q3 -5 -16 -33q-55 -79 -454 -639q-408 -573 -461 -643q-14 -19 -29 -27q-31 6 -36 30z M886 8q50 33 73 47q164 110 262 236q68 89 93 156q24 63 24 144q0 88 -43 136q-50 57 -117 64t-104 0t-99.5 -54.5t-11.5 23.5q32 45 87 74.5t152 29.5q101 0 162 -61q59 -59 59 -163q0 -70 -29 -141q-54 -135 -139 -227q-94 -103 -191 -175q-6 -5 -6 -9q0 -7 15 -7h157 q141 0 220 31q18 4 31 12l18 12q-19 -31 -35 -64q-11 -25 -25 -56q-5 -8 -11 -8h-481h-61z" />
<glyph unicode="&#xbe;" horiz-adv-x="1580" d="M58 502q4 13 10 24q9 4 25 -7q19 -18 119 -18q43 0 88 14q39 12 92 53q45 35 60 58q24 37 24 97q0 69 -81 127q-37 27 -161 51q-20 4 -20 18q0 20 19 26q142 43 167 130q9 28 9 61q0 52 -36 89q-32 34 -106 34q-86 0 -146 -39q-12 -11 -22 -11q-9 0 -9 27q1 6 7 13 q41 44 105 74q58 27 161 27q61 0 113 -43q59 -48 59 -123q0 -79 -75 -152q-55 -53 -82 -70q-19 -12 4 -16q93 -14 150 -62q70 -57 70 -163q0 -115 -132 -210q-83 -61 -247 -61q-104 0 -155 38q-10 8 -10 14zM323 19q-6 12 16 34q444 639 915 1281q14 19 30 28q26 -8 35 -31 q3 -5 -16 -33q-55 -79 -454 -639q-408 -573 -461 -643q-14 -19 -29 -27q-31 6 -36 30zM816 315q0 11 8 20q30 28 236 269q116 138 267 304q18 12 33 12q14 0 14 -16q0 -4 -14 -251t-14 -254q0 -13 12 -11q9 0 66.5 5t61.5 5q10 0 10 -6q0 -3 -7 -20q-14 -31 -33 -69 q-4 -8 -13 -8q-44 4 -86 4q-14 0 -14 -11q0 -4 3.5 -121t3.5 -128q0 -21 -13 -25q-4 -3 -52 -19q-52 -18 -58 -18q-19 0 -19 18q0 5 8 144t8 145q0 13 -16 13h-367q-25 0 -25 18zM937 393q1 -3 9 -3h271q13 0 16 3t3 10.5t5.5 163.5t5.5 158q0 18 -23 -1t-101 -114l-98 -113 q-89 -101 -88 -104z" />
<glyph unicode="&#xbf;" horiz-adv-x="696" d="M37 115q0 221 123 457q38 70 306 438q14 17 14 43q0 25 -8 48q-20 56 -43 92q-20 37 -65 40q-15 8 -15 26q0 9 6 28q4 7 29 41l51 46q24 23 33 23q12 0 35 -35q49 -75 74 -180q10 -43 10 -66q0 -37 -15 -55q-82 -116 -90 -128q-191 -294 -227 -381q-78 -185 -78 -416 q0 -66 25 -147q30 -95 79 -144q90 -93 184 -93q7 0 26.5 2t23.5 2q18 0 18 -22q0 -11 -12 -38q-27 -59 -43 -76q-8 -17 -25 -21q-34 -10 -82 -10q-158 0 -256 179q-78 143 -78 347zM368 1690q0 141 98 141q68 0 68 -112q0 -132 -117 -132q-49 0 -49 103z" />
<glyph unicode="&#xd7;" horiz-adv-x="987" d="M221 447q31 34 61 64q65 63 121 119q-54 54 -120 123q-30 32 -61 64q-14 14 13 41q20 21 43.5 31.5t29.5 4.5q30 -32 61 -63q63 -65 117 -118q56 56 122 119q30 29 60 57q11 10 42 -13q37 -36 37 -67q-6 -9 -66 -66.5t-114 -111.5q57 -57 113 -115q26 -27 51 -55 q15 -14 -24 -53q-42 -42 -52 -32q-26 26 -52 53q-60 61 -119 120q-55 -56 -118 -117q-29 -29 -58 -57q-15 -14 -55 26q-32 32 -32 46z" />
<glyph unicode="&#xd8;" horiz-adv-x="700" d="M-1 60q-7 4 2 18l659 986q12 17 18 14q9 -4 26 -13q11 -6 0 -22l-659 -985q-13 -19 -20 -15q-9 6 -26 17zM71 436q-12 4 0 33q5 14 9.5 18.5t16.5 6.5q-1 0 234.5 10t273.5 10q21 0 27 -2q11 -4 0 -29q-9 -20 -27 -22q-4 -2 -238.5 -13.5t-250.5 -11.5h-45zM71 662 q-12 3 0 32q5 14 9.5 18.5t16.5 6.5q1 0 252 11q246 10 256 9q19 1 27 -2t0 -28q-10 -21 -27 -23q-4 -1 -244 -12.5t-260 -11.5h-30z" />
<glyph unicode="&#xdf;" horiz-adv-x="1090" d="M44 29v37q0 5 2 7.5t10 2.5h137q15 0 15 17q0 6 -3 130t-3 136v485q0 25 -13 25q-11 0 -82 -2q-5 0 -7.5 2t-2.5 12v35q0 16 12 16q4 0 37 1t44.5 1t11.5 15l-2 299q-1 150 103 232q86 68 199 68q105 0 175 -108t70 -260q0 -173 -109 -325q-49 -69 -49 -116 q0 -115 153 -165q56 -18 133 -47q81 -30 129 -80q62 -63 62 -166q0 -109 -55 -182q-68 -90 -228 -90q-171 0 -291 104q-12 11 -12 43q-4 41 -4 146q0 18 14 18q16 1 20 -7q2 -9 17 -75q12 -53 47 -102q29 -40 68 -56q56 -22 139 -22q93 0 158 61q45 43 45 119q0 45 -35 78 q-46 44 -125 63q-8 3 -52 20.5t-52 20.5q-216 104 -216 282q0 85 58 149q131 144 131 335q0 189 -105 261q-55 38 -114 38q-53 0 -86 -36q-54 -58 -54 -184q0 -7 2.5 -488t2.5 -496q0 -52 30 -231q2 -11 -4.5 -20t-17.5 -9l-293 2q-10 0 -10 6z" />
<glyph unicode="&#xf7;" horiz-adv-x="987" d="M174 618q0 45 27 45q57 0 314.5 -2t291.5 -2q21 0 21 -32q0 -35 -15 -35q-53 0 -313.5 2t-304.5 2q-21 0 -21 22zM399 871q0 94 102 94q70 0 70 -84q0 -92 -92 -92q-80 0 -80 82zM411 365q0 94 105 94q30 0 49 -28q18 -24 18 -56q0 -86 -90 -86q-82 0 -82 76z" />
<glyph unicode="&#xf8;" horiz-adv-x="1006" d="M66 455q0 154 67 272q61 106 172 162q86 43 244 43q128 0 203 -47q98 -62 145 -176q43 -105 43 -246q0 -130 -43 -232q-50 -118 -182 -192q-91 -51 -211 -51q-136 0 -193 24q-122 54 -183.5 178.5t-61.5 264.5zM138 -33q-7 4 2 18l659 986q12 17 18 14q9 -4 26 -13 q11 -6 0 -22l-659 -985q-13 -19 -20 -15q-9 6 -26 17zM213 543q0 -177 63 -324q44 -101 117 -145q64 -39 142 -39q90 0 139 28q59 35 96 134q29 75 29 217q0 208 -99 325q-101 121 -264 121q-85 0 -116 -14q-21 -9 -48 -47q-59 -86 -59 -256z" />
<glyph unicode="&#x2c6;" d="M30 1044q-6 6 17 33q55 72 139 174q10 13 17 13q20 2 61 2q61 0 71.5 -2t19.5 -9q66 -66 149 -178q21 -28 16 -33q-19 -11 -47 7q-61 39 -201 132q-72 -52 -194 -132q-28 -16 -48 -7z" />
<glyph unicode="&#x2dc;" d="M16 1108q-5 14 11 37q49 69 157 69q48 0 111 -28q108 -49 139 -49q29 0 62 32q20 21 32 -8q10 -23 -6 -45q-49 -69 -157 -69q-57 0 -113 28q-96 49 -137 49q-34 0 -64 -32q-20 -23 -35 16z" />
<glyph unicode="&#x2000;" horiz-adv-x="921" />
<glyph unicode="&#x2001;" horiz-adv-x="1842" />
<glyph unicode="&#x2002;" horiz-adv-x="921" />
<glyph unicode="&#x2003;" horiz-adv-x="1842" />
<glyph unicode="&#x2004;" horiz-adv-x="614" />
<glyph unicode="&#x2005;" horiz-adv-x="460" />
<glyph unicode="&#x2006;" horiz-adv-x="307" />
<glyph unicode="&#x2007;" horiz-adv-x="307" />
<glyph unicode="&#x2008;" horiz-adv-x="230" />
<glyph unicode="&#x2009;" horiz-adv-x="368" />
<glyph unicode="&#x200a;" horiz-adv-x="102" />
<glyph unicode="&#x2010;" horiz-adv-x="698" d="M88 434q0 26 16 33q355 148 471 192q22 9 25 9q10 0 10 -27q0 -24 -16 -31q-5 -3 -228 -97t-237 -99l-29 -11q-12 0 -12 31z" />
<glyph unicode="&#x2011;" horiz-adv-x="698" d="M88 434q0 26 16 33q355 148 471 192q22 9 25 9q10 0 10 -27q0 -24 -16 -31q-5 -3 -228 -97t-237 -99l-29 -11q-12 0 -12 31z" />
<glyph unicode="&#x2012;" horiz-adv-x="698" d="M88 434q0 26 16 33q355 148 471 192q22 9 25 9q10 0 10 -27q0 -24 -16 -31q-5 -3 -228 -97t-237 -99l-29 -11q-12 0 -12 31z" />
<glyph unicode="&#x2013;" horiz-adv-x="1024" d="M72 575v68q0 16 12 16l870 3q11 0 11 -11v-78q0 -12 -11 -12h-872q-10 0 -10 14z" />
<glyph unicode="&#x2014;" horiz-adv-x="2048" d="M72 575v68q0 16 12 16l1886 3q10 0 10 -11v-78q0 -12 -10 -12h-1888q-10 0 -10 14z" />
<glyph unicode="&#x2018;" horiz-adv-x="389" d="M86 1049q0 137 129 233q25 18 43 18q12 0 12 -16q0 -4 -24 -37q-60 -59 -60 -147q0 -42 17 -72q5 -9 15 -11q7 -2 20 -1q19 2 24 2q94 0 94 -80q0 -61 -110 -61q-70 0 -113 43q-47 46 -47 129z" />
<glyph unicode="&#x2019;" horiz-adv-x="389" d="M33 1227q0 59 104 59q69 0 113.5 -45t44.5 -121q0 -144 -127 -237q-28 -21 -41 -21q-14 0 -14 17q0 12 24 36q56 56 56 148q0 35 -13 57q-15 29 -53 29q-94 0 -94 78z" />
<glyph unicode="&#x201a;" horiz-adv-x="389" d="M98 150q0 59 105 59q69 0 113 -45.5t44 -120.5q0 -144 -127 -238q-27 -20 -40 -20q-15 0 -15 16q0 13 25 37q55 56 55 148q0 34 -12 57q-16 29 -53 29q-95 0 -95 78z" />
<glyph unicode="&#x201c;" horiz-adv-x="707" d="M72 1049q0 137 129 233q24 18 43 18q12 0 12 -16q0 -4 -25 -37q-59 -59 -59 -147q0 -42 16 -72q5 -9 15 -11q7 -2 21 -1q19 2 24 2q94 0 94 -80q0 -61 -111 -61q-69 0 -112 43q-47 46 -47 129zM403 1049q0 137 129 233q25 18 43 18q13 0 13 -16q0 -4 -25 -37 q-59 -59 -59 -147q0 -42 16 -72q5 -9 15 -11q7 -2 21 -1q19 2 24 2q94 0 94 -80q0 -61 -111 -61q-69 0 -113 43q-47 46 -47 129z" />
<glyph unicode="&#x201d;" horiz-adv-x="707" d="M33 1227q0 59 104 59q69 0 113.5 -45t44.5 -121q0 -144 -127 -237q-28 -21 -41 -21q-14 0 -14 17q0 12 24 36q56 56 56 148q0 35 -13 57q-15 29 -53 29q-94 0 -94 78zM356 1227q0 59 105 59q69 0 113 -45t44 -121q0 -144 -126 -237q-28 -21 -41 -21q-15 0 -15 17 q0 12 25 36q55 56 55 148q0 35 -12 57q-16 29 -53 29q-95 0 -95 78z" />
<glyph unicode="&#x201e;" horiz-adv-x="707" d="M49 150q0 59 105 59q68 0 112.5 -45.5t44.5 -120.5q0 -144 -127 -238q-28 -20 -41 -20q-14 0 -14 16q0 13 25 37q55 56 55 148q0 34 -12 57q-16 29 -54 29q-94 0 -94 78zM373 150q0 59 104 59q69 0 113.5 -45.5t44.5 -120.5q0 -144 -127 -238q-28 -20 -41 -20 q-14 0 -14 16q0 13 24 37q55 56 55 148q0 34 -12 57q-15 29 -53 29q-94 0 -94 78z" />
<glyph unicode="&#x2022;" horiz-adv-x="1903" d="M23 279q404 232 556 245t408 14q234 -15 476 -2.5t245.5 -250t-186 -261t-565.5 1.5q-203 15 -366.5 24.5t-567.5 228.5z" />
<glyph unicode="&#x2026;" horiz-adv-x="1204" d="M121 72q0 96 110 96q74 0 74 -96q0 -36 -28 -61t-64 -25q-92 0 -92 86zM510 72q0 96 111 96q73 0 73 -96q0 -36 -28 -61t-64 -25q-92 0 -92 86zM899 72q0 96 111 96q73 0 73 -96q0 -36 -27.5 -61t-64.5 -25q-92 0 -92 86z" />
<glyph unicode="&#x202f;" horiz-adv-x="368" />
<glyph unicode="&#x2039;" horiz-adv-x="578" d="M109 512q-2 16 18 33q34 43 128 131q101 93 138 137q18 27 31 27q8 -3 25 -13q8 -12 10 -20q0 -1 -19 -33q-100 -129 -204 -268l-13 -17l19 -24q56 -67 204 -211q27 -18 27 -31q-3 -8 -12 -24q-12 -9 -21 -11l-32 19q-56 43 -269 223q-25 22 -26 33z" />
<glyph unicode="&#x203a;" horiz-adv-x="578" d="M104 223q0 13 27 31q53 44 109 108q71 79 96 103l18 24l-12 17q-104 139 -205 268q-18 32 -18 33q3 7 10 20q12 11 25 13q13 0 30 -27q38 -44 138 -137q95 -88 129 -131q19 -17 18 -33l-4 -49q-1 -11 -27 -33q-88 -76 -268 -223q-32 -19 -33 -19q-7 4 -20 11 q-11 12 -13 24z" />
<glyph unicode="&#x205f;" horiz-adv-x="460" />
<glyph unicode="&#x2122;" horiz-adv-x="1524" d="M40 1213h25q0 138 149 138q48 0 48 -36v-614l80 101v514q1 31 25 35q169 0 168 -137h25v136q0 32 -31 32h-454q-35 0 -35 -32v-137zM556 1378q87 -23 87 -90v-587h31v532q12 34 34 -8l227 -532l230 548q21 17 30 -11v-532h30v581q0 76 84 99h-156l-218 -523l-221 523 h-158z" />
<glyph unicode="&#x25fc;" horiz-adv-x="900" d="M0 0v900h900v-900h-900z" />
</font>
</defs>
</svg>
